<svg width="104" height="24" viewBox="0 0 104 24" fill="none" xmlns="http://www.w3.org/2000/svg">
<path d="M6.8 0.151999C8.576 0.151999 10.128 0.503999 11.456 1.208C12.784 1.912 13.808 2.904 14.528 4.184C15.264 5.448 15.632 6.912 15.632 8.576C15.632 10.224 15.264 11.688 14.528 12.968C13.808 14.248 12.776 15.24 11.432 15.944C10.104 16.648 8.56 17 6.8 17H0.488V0.151999H6.8ZM6.536 13.448C8.088 13.448 9.296 13.024 10.16 12.176C11.024 11.328 11.456 10.128 11.456 8.576C11.456 7.024 11.024 5.816 10.16 4.952C9.296 4.088 8.088 3.656 6.536 3.656H4.592V13.448H6.536ZM22.0295 5.84C22.5095 5.104 23.1095 4.528 23.8295 4.112C24.5495 3.68 25.3495 3.464 26.2295 3.464V7.808H25.1015C24.0775 7.808 23.3095 8.032 22.7975 8.48C22.2855 8.912 22.0295 9.68 22.0295 10.784V17H17.9255V3.608H22.0295V5.84ZM34.2871 17.192C32.9751 17.192 31.7911 16.912 30.7351 16.352C29.6951 15.792 28.8711 14.992 28.2631 13.952C27.6711 12.912 27.3751 11.696 27.3751 10.304C27.3751 8.928 27.6791 7.72 28.2871 6.68C28.8951 5.624 29.7271 4.816 30.7831 4.256C31.8391 3.696 33.0231 3.416 34.3351 3.416C35.6471 3.416 36.8311 3.696 37.8871 4.256C38.9431 4.816 39.7751 5.624 40.3831 6.68C40.9911 7.72 41.2951 8.928 41.2951 10.304C41.2951 11.68 40.9831 12.896 40.3591 13.952C39.7511 14.992 38.9111 15.792 37.8391 16.352C36.7831 16.912 35.5991 17.192 34.2871 17.192ZM34.2871 13.64C35.0711 13.64 35.7351 13.352 36.2791 12.776C36.8391 12.2 37.1191 11.376 37.1191 10.304C37.1191 9.232 36.8471 8.408 36.3031 7.832C35.7751 7.256 35.1191 6.968 34.3351 6.968C33.5351 6.968 32.8711 7.256 32.3431 7.832C31.8151 8.392 31.5511 9.216 31.5511 10.304C31.5511 11.376 31.8071 12.2 32.3191 12.776C32.8471 13.352 33.5031 13.64 34.2871 13.64ZM47.5764 5.504C47.9764 4.88 48.5284 4.376 49.2324 3.992C49.9364 3.608 50.7604 3.416 51.7044 3.416C52.8084 3.416 53.8084 3.696 54.7044 4.256C55.6004 4.816 56.3044 5.616 56.8164 6.656C57.3444 7.696 57.6084 8.904 57.6084 10.28C57.6084 11.656 57.3444 12.872 56.8164 13.928C56.3044 14.968 55.6004 15.776 54.7044 16.352C53.8084 16.912 52.8084 17.192 51.7044 17.192C50.7764 17.192 49.9524 17 49.2324 16.616C48.5284 16.232 47.9764 15.736 47.5764 15.128V23.384H43.4724V3.608H47.5764V5.504ZM53.4324 10.28C53.4324 9.256 53.1444 8.456 52.5684 7.88C52.0084 7.288 51.3124 6.992 50.4804 6.992C49.6644 6.992 48.9684 7.288 48.3924 7.88C47.8324 8.472 47.5524 9.28 47.5524 10.304C47.5524 11.328 47.8324 12.136 48.3924 12.728C48.9684 13.32 49.6644 13.616 50.4804 13.616C51.2964 13.616 51.9924 13.32 52.5684 12.728C53.1444 12.12 53.4324 11.304 53.4324 10.28ZM63.8654 5.504C64.2654 4.88 64.8174 4.376 65.5214 3.992C66.2254 3.608 67.0494 3.416 67.9934 3.416C69.0974 3.416 70.0974 3.696 70.9934 4.256C71.8894 4.816 72.5934 5.616 73.1054 6.656C73.6334 7.696 73.8974 8.904 73.8974 10.28C73.8974 11.656 73.6334 12.872 73.1054 13.928C72.5934 14.968 71.8894 15.776 70.9934 16.352C70.0974 16.912 69.0974 17.192 67.9934 17.192C67.0654 17.192 66.2414 17 65.5214 16.616C64.8174 16.232 64.2654 15.736 63.8654 15.128V23.384H59.7614V3.608H63.8654V5.504ZM69.7214 10.28C69.7214 9.256 69.4334 8.456 68.8574 7.88C68.2974 7.288 67.6014 6.992 66.7694 6.992C65.9534 6.992 65.2574 7.288 64.6814 7.88C64.1214 8.472 63.8414 9.28 63.8414 10.304C63.8414 11.328 64.1214 12.136 64.6814 12.728C65.2574 13.32 65.9534 13.616 66.7694 13.616C67.5854 13.616 68.2814 13.32 68.8574 12.728C69.4334 12.12 69.7214 11.304 69.7214 10.28ZM88.6745 10.088C88.6745 10.472 88.6505 10.872 88.6025 11.288H79.3145C79.3785 12.12 79.6425 12.76 80.1065 13.208C80.5865 13.64 81.1705 13.856 81.8585 13.856C82.8825 13.856 83.5945 13.424 83.9945 12.56H88.3625C88.1385 13.44 87.7305 14.232 87.1385 14.936C86.5625 15.64 85.8345 16.192 84.9545 16.592C84.0745 16.992 83.0905 17.192 82.0025 17.192C80.6905 17.192 79.5225 16.912 78.4985 16.352C77.4745 15.792 76.6745 14.992 76.0985 13.952C75.5225 12.912 75.2345 11.696 75.2345 10.304C75.2345 8.912 75.5145 7.696 76.0745 6.656C76.6505 5.616 77.4505 4.816 78.4745 4.256C79.4985 3.696 80.6745 3.416 82.0025 3.416C83.2985 3.416 84.4505 3.688 85.4585 4.232C86.4665 4.776 87.2505 5.552 87.8105 6.56C88.3865 7.568 88.6745 8.744 88.6745 10.088ZM84.4745 9.008C84.4745 8.304 84.2345 7.744 83.7545 7.328C83.2745 6.912 82.6745 6.704 81.9545 6.704C81.2665 6.704 80.6825 6.904 80.2025 7.304C79.7385 7.704 79.4505 8.272 79.3385 9.008H84.4745ZM98.7596 17L96.1916 13.28L94.0316 17H89.5916L94.0076 10.16L89.4716 3.608H94.0796L96.6476 7.304L98.8076 3.608H103.248L98.7596 10.352L103.368 17H98.7596Z" fill="#57ACDC"/>
</svg>
