<svg width="24" height="30" viewBox="0 0 24 30" fill="none" xmlns="http://www.w3.org/2000/svg">
<path d="M4.68402 0H14.7218L23.2187 8.86494V26.0973C23.2187 28.2529 21.4716 30 19.316 30H4.68402C2.52845 30 0.781372 28.2529 0.781372 26.0973V3.90265C0.781372 1.74711 2.52845 0 4.68402 0V0Z" fill="#0263D1"/>
<path opacity="0.302" fill-rule="evenodd" clip-rule="evenodd" d="M14.7097 0V8.79212H23.2187L14.7097 0Z" fill="white"/>
<path d="M4.40497 21.406V16.4397H6.16421C6.51604 16.4397 6.84366 16.4923 7.14697 16.5894C7.45029 16.6905 7.72529 16.8361 7.97201 17.0302C8.2187 17.2243 8.41285 17.4832 8.55438 17.8067C8.69592 18.1302 8.76873 18.5023 8.76873 18.9229C8.76873 19.3435 8.69592 19.7156 8.55438 20.0391C8.41285 20.3626 8.2187 20.6215 7.97201 20.8156C7.72533 21.0097 7.45029 21.1553 7.14697 21.2564C6.84366 21.3535 6.51608 21.406 6.16421 21.406H4.40497ZM5.64654 20.3263H6.01456C6.21273 20.3263 6.39877 20.302 6.56456 20.2575C6.73442 20.209 6.88808 20.1321 7.03367 20.031C7.17927 19.9299 7.29249 19.7843 7.37338 19.5942C7.45832 19.4082 7.49873 19.1817 7.49873 18.9229C7.49873 18.6641 7.45829 18.4376 7.37338 18.2475C7.29249 18.0615 7.17927 17.9159 7.03367 17.8148C6.88808 17.7096 6.73442 17.6369 6.56456 17.5883C6.39877 17.5438 6.21273 17.5195 6.01456 17.5195H5.64654V20.3263ZM11.7816 21.4627C11.0335 21.4627 10.4147 21.22 9.92536 20.7388C9.43601 20.2575 9.19335 19.6509 9.19335 18.9229C9.19335 18.195 9.43601 17.5883 9.92536 17.1071C10.4147 16.6258 11.0335 16.3832 11.7816 16.3832C12.5177 16.3832 13.1284 16.6259 13.6177 17.1071C14.103 17.5884 14.3457 18.195 14.3457 18.9229C14.3457 19.6509 14.103 20.2575 13.6177 20.7388C13.1284 21.22 12.5177 21.4627 11.7816 21.4627ZM10.8272 19.9704C11.0739 20.2454 11.3893 20.3829 11.7735 20.3829C12.1577 20.3829 12.4691 20.2454 12.7158 19.9704C12.9625 19.6913 13.0839 19.3435 13.0839 18.9229C13.0839 18.5023 12.9625 18.1545 12.7158 17.8754C12.4692 17.6004 12.1577 17.4629 11.7735 17.4629C11.3893 17.4629 11.0739 17.6004 10.8272 17.8754C10.5805 18.1545 10.4551 18.5023 10.4551 18.9229C10.4551 19.3435 10.5805 19.6913 10.8272 19.9704ZM17.2979 21.4627C16.574 21.4627 15.9714 21.2362 15.4942 20.7913C15.013 20.3424 14.7744 19.7196 14.7744 18.9229C14.7744 18.1302 15.0171 17.5074 15.5024 17.0585C15.9917 16.6096 16.5862 16.3831 17.298 16.3831C17.941 16.3831 18.4667 16.5408 18.8833 16.8603C19.2958 17.1758 19.5345 17.5964 19.5951 18.1221L18.3414 18.3769C18.2888 18.1019 18.1634 17.8795 17.9693 17.7137C17.7752 17.5478 17.5487 17.4629 17.2899 17.4629C16.934 17.4629 16.6387 17.5883 16.4001 17.8431C16.1615 18.1019 16.0402 18.4578 16.0402 18.9229C16.0402 19.388 16.1615 19.7438 16.3961 19.9986C16.6347 20.2575 16.9299 20.3828 17.2898 20.3828C17.5486 20.3828 17.7711 20.3101 17.9531 20.1645C18.1351 20.0189 18.2483 19.8248 18.2969 19.5821L19.5789 19.8733C19.4616 20.3748 19.2027 20.763 18.7983 21.042C18.398 21.3211 17.8965 21.4627 17.2979 21.4627Z" fill="white"/>
</svg>
